<svg width="103" height="71" viewBox="0 0 103 71" fill="none" xmlns="http://www.w3.org/2000/svg">
  <path fill-rule="evenodd" clip-rule="evenodd" d="M102.152 33.1723C102.152 14.8985 79.284 0 51.0787 0C22.8715 0 0.00597739 14.8985 0.00597739 33.1723C0.00597739 33.6432 0 34.9491 0 35.1153C0 54.5031 19.9864 70.2048 51.0708 70.2048C82.3504 70.2048 102.152 54.507 102.152 35.1172V33.1723Z" fill="#2D3277"/>
  <path fill-rule="evenodd" clip-rule="evenodd" d="M99.4798 33.1559C99.4798 50.3851 77.6521 64.3536 50.7226 64.3536C23.795 64.3536 1.96536 50.3851 1.96536 33.1559C1.96536 15.9267 23.795 1.95817 50.7226 1.95817C77.6521 1.95817 99.4798 15.9267 99.4798 33.1559Z" fill="#FFDB00"/>
  <path fill-rule="evenodd" clip-rule="evenodd" d="M34.5328 23.3144C34.5071 23.3619 34.0205 23.8664 34.335 24.2701C35.1065 25.2534 37.4823 25.8173 39.8859 25.2791C41.3161 24.9586 43.1499 23.4984 44.9264 22.0877C46.8532 20.5563 48.7622 19.0269 50.683 18.4175C52.7166 17.7685 54.0203 18.0475 54.8808 18.3087C55.8244 18.5896 56.9362 19.2109 58.7067 20.5405C62.0419 23.0493 75.4563 34.7603 77.7747 36.7844C79.6422 35.9415 87.9388 32.3682 99.2127 29.8832C98.2315 23.8724 94.5778 18.372 89.0308 13.8688C81.3039 17.1156 71.8599 18.8093 62.6235 14.2982C62.5761 14.2784 57.5771 11.914 52.6474 12.0288C45.3201 12.1989 42.147 15.3705 38.786 18.7301L34.5328 23.3144Z" fill="white"/>
  <path fill-rule="evenodd" clip-rule="evenodd" d="M77.2305 38.0588C77.0723 37.9183 61.4562 24.2505 57.9191 21.5913C55.8717 20.0559 54.7322 19.6642 53.5354 19.5118C52.9142 19.4307 52.0537 19.5475 51.4543 19.7117C49.8084 20.1588 47.6561 21.5992 45.7432 23.1128C43.767 24.6897 41.9015 26.1736 40.1725 26.5614C37.9589 27.056 35.2606 26.4724 34.0282 25.6394C33.5277 25.3031 33.1775 24.9153 33.0074 24.5195C32.5544 23.465 33.3932 22.6221 33.5297 22.4797L37.8402 17.8182C38.3407 17.3176 38.8451 16.8171 39.3615 16.3244C37.9708 16.5045 36.6869 16.8606 35.4347 17.2088C33.8739 17.6481 32.3704 18.0675 30.8511 18.0655C30.2181 18.0655 26.8195 17.5096 26.1746 17.3315C22.2756 16.265 18.8513 15.2263 13.7395 12.8382C7.61299 17.4007 3.51609 23.1029 2.33311 29.3868C3.21144 29.6183 4.62983 30.0417 5.22725 30.1723C19.0906 33.2548 23.4071 36.4324 24.1925 37.0952C25.0411 36.1514 26.2637 35.5539 27.6286 35.5539C29.1637 35.5559 30.5445 36.3275 31.3872 37.5186C32.1805 36.8914 33.2745 36.3552 34.6909 36.3552C35.3338 36.3552 35.9985 36.4759 36.673 36.7034C38.2378 37.2396 39.0449 38.2823 39.4623 39.2241C39.9866 38.9887 40.6334 38.8126 41.3931 38.8146C42.1389 38.8146 42.9163 38.9867 43.6977 39.325C46.2536 40.4211 46.6512 42.9319 46.4197 44.8254C46.6017 44.8036 46.7837 44.7957 46.9717 44.7957C50.0023 44.7977 52.4672 47.261 52.4652 50.2941C52.4652 51.2319 52.2258 52.1144 51.8084 52.8899C52.6333 53.3529 54.7362 54.4016 56.5819 54.1681C58.0576 53.9821 58.6155 53.4776 58.8173 53.1946C58.9538 53.0007 59.0982 52.7732 58.9656 52.609L55.0527 48.2621C55.0527 48.2621 54.4078 47.6527 54.6214 47.4173C54.841 47.1759 55.2387 47.5221 55.5215 47.7576C57.5116 49.4215 59.9429 51.9303 59.9429 51.9303C59.9844 51.958 60.1446 52.2766 61.0428 52.4369C61.8162 52.5754 63.1871 52.4942 64.1347 51.7167C64.3741 51.5188 64.6154 51.2735 64.8132 51.0202C64.7974 51.0321 64.7855 51.0499 64.7697 51.0558C65.7707 49.7757 64.6609 48.4798 64.6609 48.4798L60.0912 43.3494C60.0912 43.3494 59.4384 42.7479 59.662 42.5045C59.8598 42.2928 60.2811 42.6114 60.566 42.8488C62.0121 44.0577 64.0556 46.1095 66.014 48.0287C66.3958 48.3076 68.1189 49.3721 70.3958 47.8743C71.7786 46.9682 72.0555 45.8523 72.0159 45.0114C71.921 43.8994 71.0526 43.106 71.0526 43.106L64.8132 36.834C64.8132 36.834 64.1565 36.2701 64.3879 35.9852C64.5778 35.7458 65.0071 36.0901 65.286 36.3275C67.2761 37.9895 72.6549 42.922 72.6549 42.922C72.7301 42.9774 74.5896 44.2991 76.8863 42.8369C77.7073 42.3126 78.2335 41.5212 78.277 40.6012C78.3561 39.0045 77.2305 38.0588 77.2305 38.0588Z" fill="white"/>
  <path fill-rule="evenodd" clip-rule="evenodd" d="M46.9711 46.0097C46.0037 45.9998 44.9454 46.5736 44.8089 46.4905C44.7317 46.4391 44.8682 46.0513 44.9572 45.8257C45.0502 45.6041 46.3242 41.7697 43.2184 40.4382C40.8425 39.4172 39.3905 40.5668 38.892 41.0851C38.7595 41.2217 38.7001 41.2098 38.6883 41.0377C38.6388 40.3471 38.3302 38.4794 36.2788 37.8522C33.349 36.9559 31.4618 39.0017 30.9851 39.7397C30.7714 38.0698 29.357 36.7739 27.628 36.7719C25.7487 36.7679 24.2235 38.2934 24.2215 40.171C24.2215 42.0507 25.7448 43.5742 27.6241 43.5742C28.538 43.5781 29.3669 43.2121 29.9762 42.6244C29.996 42.6423 30.0039 42.6739 29.994 42.7392C29.8515 43.5801 29.5865 46.6389 32.7892 47.8854C34.0731 48.384 35.167 48.012 36.0711 47.3769C36.3401 47.187 36.3856 47.2681 36.346 47.5214C36.2313 48.3068 36.3777 49.9926 38.7377 50.9482C40.5339 51.6783 41.5962 50.9324 42.2926 50.2893C42.5972 50.0104 42.6803 50.0559 42.6942 50.4832C42.7812 52.7605 44.6704 54.567 46.9671 54.5689C49.3311 54.5709 51.25 52.6596 51.25 50.2933C51.2519 47.9289 49.335 46.0374 46.9711 46.0097Z" fill="white"/>
  <path fill-rule="evenodd" clip-rule="evenodd" d="M46.9711 54.2648C44.8287 54.2629 43.0859 52.5969 43.0067 50.472C43.0008 50.2919 42.981 49.8072 42.5715 49.8072C42.4053 49.8072 42.259 49.9081 42.0888 50.0604C41.618 50.4977 41.0186 50.9409 40.1423 50.9409C39.7446 50.9409 39.3114 50.8499 38.8584 50.6639C36.5933 49.7458 36.5637 48.1907 36.6547 47.5655C36.6784 47.3993 36.6883 47.2252 36.5735 47.0906L36.4331 46.966H36.2926C36.1779 46.966 36.0592 47.0115 35.899 47.1262C35.2442 47.5853 34.6171 47.8088 33.9781 47.8088C33.626 47.8088 33.266 47.7376 32.9059 47.5991C29.9247 46.4397 30.1602 43.6262 30.3046 42.7794C30.3263 42.6072 30.2848 42.4747 30.176 42.3856L29.9643 42.2115L29.7685 42.3995C29.1869 42.9614 28.4272 43.2661 27.63 43.2661C25.9228 43.2641 24.5341 41.8791 24.5341 40.1716C24.5361 38.4642 25.9268 37.0772 27.634 37.0792C29.175 37.0792 30.4885 38.2386 30.6864 39.7799L30.7912 40.6129L31.2482 39.9085C31.3016 39.8254 32.5498 37.9359 34.8505 37.9379C35.2857 37.9379 35.7387 38.0071 36.1937 38.1476C38.0256 38.7075 38.3361 40.3695 38.3856 41.062C38.4172 41.4656 38.7041 41.4854 38.7595 41.4854C38.9197 41.4854 39.0345 41.3845 39.1175 41.2974C39.4657 40.9373 40.2174 40.3359 41.3965 40.3359C41.9365 40.3378 42.5102 40.4664 43.1017 40.7217C46.0156 41.9701 44.6941 45.672 44.6783 45.7116C44.4291 46.3249 44.4172 46.596 44.6526 46.7523L44.7693 46.8057H44.8544C44.9849 46.8057 45.1491 46.7503 45.4182 46.6593C45.8138 46.5228 46.4132 46.315 46.9711 46.317H46.9731C49.1649 46.3408 50.9493 48.1254 50.9493 50.2939C50.9473 52.4841 49.1629 54.2648 46.9711 54.2648ZM77.8353 36.4223C73.0242 32.2218 61.9066 22.5566 58.8938 20.2971C57.1747 19.0032 56.0017 18.3186 54.971 18.0119C54.5101 17.8714 53.8691 17.7112 53.0442 17.7112C52.2786 17.7112 51.4577 17.8497 50.5972 18.1227C48.6506 18.738 46.7139 20.2793 44.8366 21.7711L44.7416 21.8463C42.9949 23.2353 41.1887 24.6717 39.8238 24.9784C39.2263 25.1129 38.6131 25.1802 38.0018 25.1802C36.4727 25.1782 35.0978 24.737 34.5815 24.0801C34.4964 23.9713 34.5518 23.7952 34.7496 23.5419L34.7753 23.5083L39.0087 18.9478C42.3223 15.6337 45.4538 12.5017 52.6604 12.3374C52.7791 12.3335 52.9018 12.3315 53.0205 12.3315C57.5071 12.3355 61.9897 14.3437 62.4922 14.5752C66.6979 16.6269 71.0401 17.6696 75.404 17.6736C79.95 17.6756 84.6443 16.5498 89.578 14.2764C89.0261 13.8134 88.4544 13.3623 87.8629 12.9191C83.5306 14.7987 79.4001 15.7484 75.4159 15.7465C71.3467 15.7425 67.2815 14.7671 63.3329 12.84C63.1252 12.7411 58.1737 10.4044 53.0225 10.4024C52.8879 10.4024 52.7495 10.4044 52.6169 10.4064C46.5616 10.5488 43.1531 12.6995 40.8604 14.5831C38.6309 14.6365 36.7061 15.1747 34.9949 15.6535C33.4658 16.0769 32.1483 16.4449 30.8604 16.4449C30.3303 16.4449 29.3768 16.3954 29.2917 16.3935C27.812 16.3479 20.3581 14.5198 14.4293 12.2741C13.824 12.7035 13.2424 13.1447 12.6747 13.5958C18.8665 16.1362 26.4055 18.1009 28.7853 18.2553C29.448 18.2988 30.1522 18.374 30.8585 18.374C32.4312 18.374 34.0019 17.9328 35.5231 17.5074C36.4212 17.2541 37.4103 16.9811 38.4529 16.7813C38.1739 17.0543 37.897 17.3313 37.618 17.6103L33.3194 22.2618C32.9811 22.6041 32.2452 23.5142 32.7299 24.6381C32.9218 25.0911 33.3134 25.5264 33.8614 25.8944C34.8861 26.583 36.7199 27.0499 38.4252 27.0519C39.0701 27.0519 39.6813 26.9866 40.2451 26.8619C42.0473 26.4563 43.9365 24.9507 45.9404 23.3579C47.5368 22.0897 49.8039 20.4811 51.5388 20.0063C52.0254 19.8757 52.6189 19.7926 53.0996 19.7926C53.2401 19.7946 53.3766 19.7985 53.5032 19.8163C54.6486 19.9628 55.7583 20.3525 57.7385 21.8384C61.2677 24.4897 76.8857 38.1535 77.0381 38.29C77.0479 38.298 78.045 39.1586 77.9757 40.5852C77.9381 41.3825 77.495 42.0908 76.7275 42.5795C76.0608 43.0029 75.3724 43.2186 74.6761 43.2186C73.6335 43.2166 72.9135 42.7279 72.868 42.6943C72.8106 42.6468 67.4575 37.738 65.4912 36.0899C65.1766 35.8327 64.872 35.5972 64.5654 35.5972C64.3992 35.5953 64.2528 35.6665 64.1559 35.7911C63.8453 36.171 64.1935 36.7013 64.601 37.0495L70.8522 43.3334C70.8601 43.3393 71.6296 44.0615 71.7147 45.027C71.7641 46.0677 71.2656 46.9383 70.231 47.6169C69.4931 48.1036 68.7454 48.349 68.0154 48.349C67.056 48.349 66.3814 47.9137 66.233 47.8088L65.3369 46.9264C63.6969 45.3119 62.0056 43.644 60.7672 42.6112C60.4645 42.3599 60.1421 42.1284 59.8354 42.1284C59.6831 42.1284 59.5466 42.1858 59.4418 42.2946C59.3013 42.4529 59.2024 42.7339 59.5545 43.2028C59.7009 43.3967 59.8711 43.555 59.8711 43.555L64.4309 48.6794C64.4684 48.7249 65.3705 49.7973 64.5337 50.8637L64.3715 51.0695C64.237 51.2199 64.0886 51.3584 63.9501 51.479C63.1707 52.1181 62.1322 52.1854 61.7187 52.1854C61.4991 52.1854 61.2875 52.1656 61.1035 52.132C60.6544 52.0528 60.3498 51.9262 60.2034 51.7541L60.15 51.6967C59.9007 51.4395 57.6001 49.0909 55.699 47.5041C55.4478 47.2924 55.1352 47.0273 54.8108 47.0273C54.6505 47.0273 54.5101 47.0906 54.3993 47.2113C54.0234 47.6248 54.5872 48.2402 54.8286 48.4677L58.7178 52.7572C58.7138 52.7948 58.6663 52.8838 58.5714 53.0203C58.4309 53.2123 57.9601 53.6851 56.5476 53.8612C56.3795 53.885 56.2034 53.8929 56.0333 53.8929C54.5773 53.8929 53.0244 53.1865 52.2252 52.7611C52.5892 51.9935 52.7772 51.1466 52.7772 50.2978C52.7791 47.0926 50.1778 44.4888 46.977 44.4869C46.9078 44.4869 46.8366 44.4888 46.7673 44.4908C46.8722 43.0287 46.6664 40.2587 43.8237 39.0419C43.0067 38.6858 42.1897 38.5077 41.3984 38.5077C40.7773 38.5077 40.1798 38.6125 39.62 38.8282C39.0305 37.6846 38.0533 36.8497 36.7773 36.4164C36.075 36.171 35.3728 36.0483 34.6942 36.0483C33.5132 36.0483 32.4232 36.3966 31.4519 37.0891C30.5222 35.9296 29.1157 35.2451 27.6359 35.2451C26.3382 35.2451 25.092 35.7634 24.1681 36.6775C22.9575 35.7535 18.1543 32.7026 5.29787 29.7803C4.67671 29.6418 3.24646 29.2303 2.37209 28.975C2.2257 29.6715 2.11492 30.3739 2.0437 31.0842C2.0437 31.0842 4.41361 31.652 4.88047 31.7569C18.0139 34.6752 22.3541 37.7083 23.086 38.2821C22.8368 38.8777 22.7082 39.5227 22.7082 40.1716C22.7062 42.8842 24.9139 45.0943 27.628 45.0962C27.9327 45.0962 28.2334 45.0705 28.5301 45.0151C28.9396 47.0115 30.2472 48.527 32.2432 49.3026C32.8268 49.5282 33.4163 49.6449 33.9959 49.6449C34.3718 49.6449 34.7476 49.5974 35.1176 49.5025C35.4855 50.4383 36.3164 51.6076 38.17 52.3615C38.8208 52.6226 39.4716 52.7592 40.1047 52.7592C40.621 52.7592 41.1254 52.6681 41.6061 52.4921C42.4944 54.6566 44.6111 56.093 46.9711 56.093C48.5339 56.095 50.0334 55.4579 51.1273 54.3321C52.065 54.8505 54.0432 55.7943 56.0412 55.7962C56.3004 55.7962 56.5417 55.7784 56.785 55.7487C58.7692 55.4995 59.693 54.7219 60.1183 54.1184C60.1955 54.0155 60.2627 53.9008 60.3221 53.786C60.7909 53.9206 61.3053 54.0314 61.8948 54.0314C62.9788 54.0314 64.0194 53.6614 65.0718 52.8957C66.1044 52.1517 66.8384 51.0814 66.9452 50.1712C66.9472 50.1594 66.9491 50.1455 66.9491 50.1317C67.2973 50.2049 67.6554 50.2405 68.0134 50.2405C69.1291 50.2405 70.2251 49.8922 71.2735 49.2057C73.2972 47.8781 73.6494 46.1469 73.6157 45.0112C73.9679 45.0864 74.3318 45.1239 74.6899 45.1239C75.7384 45.1239 76.767 44.8094 77.7482 44.1841C79.0024 43.3828 79.7561 42.1541 79.8709 40.7256C79.948 39.7561 79.7087 38.7768 79.1963 37.9339C82.585 36.4718 90.3317 33.6464 99.4553 31.5907C99.3999 30.8824 99.299 30.1839 99.1724 29.4875C88.1339 31.9389 79.8966 35.5042 77.8353 36.4223Z" fill="#2D3277"/>
</svg>
